<?xml version="1.0" encoding="UTF-8"?><svg id="a" xmlns="http://www.w3.org/2000/svg" width="348.84" height="34.97" viewBox="0 0 348.84 34.97"><path d="m70.04,15.47h-1.81V.31h3.13l3.82,12.72h.04l3.86-12.72h3.19v15.16h-1.93V1.99h-.04l-4.24,13.48h-1.83l-4.16-13.48h-.04v13.48Z" fill="#011e41"/><path d="m89.18.31h2.46l4.93,15.16h-2.16l-1.09-3.61h-5.86l-1.13,3.61h-1.95L89.18.31Zm1.18,1.78h-.04l-2.37,8.08h4.85l-2.44-8.08Z" fill="#011e41"/><path d="m105.82.31v1.68h-3.99v13.48h-1.93V1.99h-3.99V.31h9.91Z" fill="#011e41"/><path d="m117.08.31v1.68h-3.99v13.48h-1.93V1.99h-3.99V.31h9.91Z" fill="#011e41"/><path d="m119.19,15.47V.31h1.93v6.55h5.31V.31h1.93v15.16h-1.93v-6.93h-5.31v6.93h-1.93Z" fill="#011e41"/><path d="m135.29.31h2.46l4.93,15.16h-2.16l-1.09-3.61h-5.86l-1.13,3.61h-1.95l4.81-15.16Zm1.18,1.78h-.04l-2.37,8.08h4.85l-2.44-8.08Z" fill="#011e41"/><path d="m144.75,15.47V.31h7.81v1.68h-5.88v4.87h5.46v1.68h-5.46v5.25h6v1.68h-7.94Z" fill="#011e41"/><path d="m157.07,15.47h-1.93V.31h1.93v15.16Z" fill="#011e41"/><path d="m164.52,15.47V.31h4.93c2.1,0,2.81.71,3.38,1.55.53.82.61,1.72.61,2.02,0,1.89-.65,3.15-2.6,3.59v.1c2.16.25,3.11,1.55,3.11,3.63,0,3.88-2.83,4.26-4.56,4.26h-4.87Zm1.93-8.78h2.81c1.51-.02,2.25-.94,2.25-2.41,0-1.26-.71-2.29-2.33-2.29h-2.73v4.7Zm0,7.1h2.73c2.06,0,2.79-1.47,2.79-2.58,0-2.41-1.49-2.83-3.46-2.83h-2.06v5.42Z" fill="#011e41"/><path d="m176.56,9.93v-4.98c0-3.02,1.55-4.96,4.77-4.96s4.77,1.93,4.77,4.96v4.98c0,4.2-1.55,5.86-4.77,5.86s-4.77-1.66-4.77-5.86Zm7.56.08v-5.12c0-3.17-2.18-3.28-2.79-3.28s-2.79.1-2.79,3.28v5.12c0,3.32.97,4.16,2.79,4.16s2.79-.84,2.79-4.16Z" fill="#011e41"/><path d="m197.77.31v1.68h-3.99v13.48h-1.93V1.99h-3.99V.31h9.91Z" fill="#011e41"/><path d="m201.91.31h2.46l4.93,15.16h-2.16l-1.09-3.61h-5.86l-1.13,3.61h-1.95l4.81-15.16Zm1.18,1.78h-.04l-2.37,8.08h4.85l-2.44-8.08Z" fill="#011e41"/><path d="m221.81.31v15.16h-2.65l-5.98-13.14h-.04v13.14h-1.72V.31h2.73l5.9,12.98h.04V.31h1.72Z" fill="#011e41"/><path d="m226.81,15.47h-1.93V.31h1.93v15.16Z" fill="#011e41"/><path d="m236.5,4.49c.02-.86-.04-1.72-.44-2.2s-1.3-.65-1.7-.65c-1.6,0-2.23.97-2.29,1.18-.06.17-.44.55-.44,3.15v4.05c0,3.72,1.22,4.16,2.71,4.16.59,0,2.37-.21,2.39-3.17h2c.08,4.79-3.3,4.79-4.28,4.79-1.89,0-4.79-.13-4.79-6v-4.28c0-4.28,1.89-5.5,4.87-5.5s4.16,1.55,3.97,4.49h-2Z" fill="#011e41"/><path d="m244.85.31h2.46l4.93,15.16h-2.16l-1.09-3.61h-5.86l-1.13,3.61h-1.95l4.81-15.16Zm1.18,1.78h-.04l-2.37,8.08h4.85l-2.44-8.08Z" fill="#011e41"/><path d="m254.31,15.47V.31h1.93v13.48h5.56v1.68h-7.5Z" fill="#011e41"/><path d="m274.51,4.37c0-1.78-.74-2.75-2.69-2.75-.61,0-2.79.1-2.79,3.28v5.12c0,3.32.97,4.16,2.79,4.16,1.38,0,2.31-.38,2.71-.67v-4.54h-2.79v-1.68h4.72v7.37c-1.24.67-2.69,1.13-4.64,1.13-3.21,0-4.77-1.66-4.77-5.86v-4.98c0-3.02,1.55-4.96,4.77-4.96s4.83,1.2,4.7,4.37h-2.02Z" fill="#011e41"/><path d="m283.37.31h2.46l4.93,15.16h-2.16l-1.09-3.61h-5.86l-1.13,3.61h-1.95l4.81-15.16Zm1.18,1.78h-.04l-2.37,8.08h4.85l-2.44-8.08Z" fill="#011e41"/><path d="m294.74,8.5v6.97h-1.93V.31h5.23c2.69,0,3.63,1.89,3.63,3.78,0,1.78-.99,3.15-2.77,3.46v.04c1.74.27,2.37.86,2.48,3.91.02.65.23,3.02.52,3.97h-2.02c-.55-1.05-.42-3.02-.59-5.04-.15-1.85-1.64-1.93-2.29-1.93h-2.27Zm0-1.68h2.9c1.39,0,2.06-1.2,2.06-2.52,0-1.09-.55-2.31-2.04-2.31h-2.92v4.83Z" fill="#011e41"/><path d="m304.27.31h4.66c1.93,0,3.32.69,4.07,2.31.61,1.28.67,4.3.67,4.79,0,3.23-.29,5.1-.92,6.11-.82,1.3-2.35,1.95-5,1.95h-3.49V.31Zm1.93,13.48h1.83c2.69,0,3.67-1.01,3.67-4.54v-3.07c0-3.07-.95-4.2-2.96-4.2h-2.54v11.8Z" fill="#011e41"/><path d="m316.41,15.47V.31h7.81v1.68h-5.88v4.87h5.46v1.68h-5.46v5.25h6v1.68h-7.94Z" fill="#011e41"/><path d="m337.11.31v15.16h-2.64l-5.98-13.14h-.04v13.14h-1.72V.31h2.73l5.9,12.98h.04V.31h1.72Z" fill="#011e41"/><path d="m341.62,10.96v.44c0,2.06,1.3,2.71,2.54,2.71,1.53,0,2.71-.65,2.71-2.46,0-3.36-6.8-2.98-6.8-7.54,0-2.69,1.91-4.12,4.45-4.12,2.77,0,4.33,1.34,4.2,4.43h-2.02c.02-1.66-.5-2.75-2.33-2.75-1.16,0-2.33.59-2.33,2.23,0,3.34,6.8,2.86,6.8,7.66,0,3.19-2.2,4.22-4.7,4.22-4.47.04-4.47-3.38-4.43-4.83h1.91Z" fill="#011e41"/><path d="m71.64,19.31h2.46l4.93,15.16h-2.16l-1.09-3.61h-5.86l-1.13,3.61h-1.95l4.81-15.16Zm1.18,1.78h-.04l-2.37,8.08h4.85l-2.44-8.08Z" fill="#011e41"/><path d="m92.59,19.31v15.16h-2.65l-5.98-13.14h-.04v13.14h-1.72v-15.16h2.73l5.9,12.98h.04v-12.98h1.72Z" fill="#011e41"/><path d="m96.61,19.31h4.66c1.93,0,3.32.69,4.07,2.31.61,1.28.67,4.3.67,4.79,0,3.23-.29,5.1-.92,6.11-.82,1.3-2.35,1.95-5,1.95h-3.49v-15.16Zm1.93,13.48h1.83c2.69,0,3.67-1.01,3.67-4.54v-3.07c0-3.07-.94-4.2-2.96-4.2h-2.54v11.8Z" fill="#011e41"/><path d="m125.61,19.31v15.16h-2.65l-5.98-13.14h-.04v13.14h-1.72v-15.16h2.73l5.9,12.98h.04v-12.98h1.72Z" fill="#011e41"/><path d="m131.67,34.47h-1.93v-15.16h1.93v15.16Z" fill="#011e41"/><path d="m142.41,23.49c.02-.86-.04-1.72-.44-2.21s-1.3-.65-1.7-.65c-1.6,0-2.23.96-2.29,1.18-.06.17-.44.54-.44,3.15v4.05c0,3.72,1.22,4.16,2.71,4.16.59,0,2.37-.21,2.39-3.17h1.99c.08,4.79-3.3,4.79-4.28,4.79-1.89,0-4.79-.12-4.79-6v-4.28c0-4.28,1.89-5.5,4.87-5.5s4.16,1.55,3.97,4.49h-1.99Z" fill="#011e41"/><path d="m148.18,34.47v-15.16h1.93v6.55h5.31v-6.55h1.93v15.16h-1.93v-6.93h-5.31v6.93h-1.93Z" fill="#011e41"/><path d="m161.26,28.93v-4.98c0-3.02,1.55-4.95,4.77-4.95s4.77,1.93,4.77,4.95v4.98c0,4.2-1.55,5.86-4.77,5.86s-4.77-1.66-4.77-5.86Zm7.56.08v-5.12c0-3.17-2.18-3.27-2.79-3.27s-2.79.11-2.79,3.27v5.12c0,3.32.97,4.16,2.79,4.16s2.79-.84,2.79-4.16Z" fill="#011e41"/><path d="m174.65,34.47v-15.16h1.93v13.48h5.56v1.68h-7.5Z" fill="#011e41"/><path d="m186.71,29.96v.44c0,2.06,1.3,2.71,2.54,2.71,1.53,0,2.71-.65,2.71-2.46,0-3.36-6.8-2.98-6.8-7.54,0-2.69,1.91-4.11,4.45-4.11,2.77,0,4.33,1.34,4.2,4.43h-2.02c.02-1.66-.5-2.75-2.33-2.75-1.15,0-2.33.59-2.33,2.23,0,3.34,6.8,2.86,6.8,7.66,0,3.19-2.21,4.22-4.7,4.22-4.47.04-4.47-3.38-4.43-4.83h1.91Z" fill="#011e41"/><path d="m206.03,19.31h2.46l4.93,15.16h-2.16l-1.09-3.61h-5.86l-1.13,3.61h-1.95l4.81-15.16Zm1.18,1.78h-.04l-2.37,8.08h4.85l-2.44-8.08Z" fill="#011e41"/><path d="m218.45,27.5v6.97h-1.93v-15.16h5.23c2.69,0,3.63,1.89,3.63,3.78,0,1.78-.99,3.15-2.77,3.46v.04c1.74.27,2.37.86,2.48,3.9.02.65.23,3.02.53,3.97h-2.02c-.55-1.05-.42-3.02-.59-5.04-.15-1.85-1.64-1.93-2.29-1.93h-2.27Zm0-1.68h2.9c1.38,0,2.06-1.2,2.06-2.52,0-1.09-.54-2.31-2.04-2.31h-2.92v4.83Z" fill="#011e41"/><path d="m229.11,34.47v-15.16h4.93c2.1,0,2.81.71,3.38,1.55.53.82.61,1.72.61,2.02,0,1.89-.65,3.15-2.6,3.59v.11c2.16.25,3.11,1.55,3.11,3.63,0,3.88-2.83,4.26-4.56,4.26h-4.87Zm1.93-8.78h2.81c1.51-.02,2.25-.94,2.25-2.42,0-1.26-.71-2.29-2.33-2.29h-2.73v4.7Zm0,7.1h2.73c2.06,0,2.79-1.47,2.79-2.58,0-2.42-1.49-2.83-3.46-2.83h-2.06v5.42Z" fill="#011e41"/><path d="m242.19,28.93v-4.98c0-3.02,1.55-4.95,4.77-4.95s4.77,1.93,4.77,4.95v4.98c0,4.2-1.55,5.86-4.77,5.86s-4.77-1.66-4.77-5.86Zm7.56.08v-5.12c0-3.17-2.18-3.27-2.79-3.27s-2.79.11-2.79,3.27v5.12c0,3.32.97,4.16,2.79,4.16s2.79-.84,2.79-4.16Z" fill="#011e41"/><path d="m257.49,27.5v6.97h-1.93v-15.16h5.23c2.69,0,3.63,1.89,3.63,3.78,0,1.78-.99,3.15-2.77,3.46v.04c1.74.27,2.37.86,2.48,3.9.02.65.23,3.02.53,3.97h-2.02c-.55-1.05-.42-3.02-.59-5.04-.15-1.85-1.64-1.93-2.29-1.93h-2.27Zm0-1.68h2.9c1.38,0,2.06-1.2,2.06-2.52,0-1.09-.54-2.31-2.04-2.31h-2.92v4.83Z" fill="#011e41"/><path d="m268.06,34.47v-15.16h7.81v1.68h-5.88v4.87h5.46v1.68h-5.46v5.25h6v1.68h-7.94Z" fill="#011e41"/><path d="m288.52,19.31v1.68h-3.99v13.48h-1.93v-13.48h-3.99v-1.68h9.91Z" fill="#011e41"/><path d="m291.59,19.31h1.93v9.7c0,3.32,1.01,4.16,2.83,4.16s2.83-.84,2.83-4.16v-9.7h1.93v9.62c0,4.2-1.55,5.86-4.77,5.86s-4.77-1.66-4.77-5.86v-9.62Z" fill="#011e41"/><path d="m306.83,34.47h-1.81v-15.16h3.13l3.82,12.72h.04l3.86-12.72h3.19v15.16h-1.93v-13.48h-.04l-4.24,13.48h-1.83l-4.16-13.48h-.04v13.48Z" fill="#011e41"/><rect x="58.21" y=".32" width=".5" height="34.66" fill="#011e41"/><path d="m24.23,28.93l-9.93-13.56v9.87h3.95v9.74H0v-9.74h3.7v-15.17H0V.32h14.34l9.89,13.66L34.13.32h14.33v9.74h-3.7v15.17h3.7v9.74h-18.25v-9.74h3.94v-9.87l-9.93,13.56Z" fill="#f3c300"/></svg>